
        <svg xmlns="http://www.w3.org/2000/svg" xmlns:xlink="http://www.w3.org/1999/xlink" version="1.1" width="3194.8431497184793" height="1131.6490120783963" viewBox="0 0 3194.8431497184793 1131.6490120783963">
			
			<g transform="scale(9.742157485923997) translate(10, 10)">
				<defs id="SvgjsDefs6049"/><g id="SvgjsG6050" featureKey="nRdZyp-0" transform="matrix(297.02457642243974,0,0,297.02457642243974,0.000205809515768937,7.999782848830808)" fill="#fff"><defs xmlns="http://www.w3.org/2000/svg"/><g xmlns="http://www.w3.org/2000/svg"><path class="fil0" d="M0.319701 0.0120394c-0.0112559,-0.00551575 -0.0226969,-0.00427559 -0.0342913,-0.000377953 -0.0198858,-0.0231654 -0.0650827,-0.00994882 -0.0617717,0.0231969 -0.0290866,0.0409055 -0.0433898,-0.0239567 -0.0784134,-0.0302598 -0.0411299,0.00557087 -0.0828346,0.0043937 -0.121276,-0.00214173 0.0155866,0.0204882 0.0357677,0.0334252 0.0607638,0.0384528 -0.0181535,0.00288583 -0.0364685,0.00311811 -0.0539528,-0.00038189 0.0206496,0.0159882 0.0453622,0.0247362 0.0707205,0.0286181 -0.0114882,0.00677165 -0.0249409,0.00852362 -0.0394567,0.00756299 0.0168937,0.0124213 0.0358819,0.019185 0.0584921,0.0161378 -0.00683465,0.00710236 -0.0152441,0.0115787 -0.0247717,0.0138031 0.0134252,0.00269685 0.0268543,0.00350394 0.0402795,0.000818898 -0.0145748,0.0141535 -0.0258071,0.0266535 -0.029626,0.0414764 -0.0343071,0.0268504 -0.0694016,0.0515276 -0.106398,0.0709764 0.0191969,0.00141339 0.038622,0.000102362 0.0584921,-0.00655512 -0.0131772,0.0201772 -0.028626,0.0388661 -0.0505512,0.0533228 0.0244409,-0.00911811 0.0474173,-0.020878 0.066815,-0.0390787 -0.00428346,0.0144685 -0.011689,0.0282677 -0.0206772,0.0417283 0.0322008,-0.0312835 0.0625945,-0.062748 0.0745079,-0.096063 0.0663858,0.00324803 0.136409,-0.0494291 0.130854,-0.102492 0.00890945,-0.0200433 0.0268937,-0.0115984 0.0327756,-0.0389528 0.00829134,-0.0017126 0.0147205,-0.00544882 0.0156102,-0.0152362l0.011874 -0.00455512zm-0.0607638 0.000480315c-0.00316535,0 -0.00572835,0.00256299 -0.00572835,0.00572835 0,0.00316535 0.00256299,0.00572835 0.00572835,0.00572835 0.00316535,0 0.00572835,-0.00256299 0.00572835,-0.00572835 0,-0.00316535 -0.00256299,-0.00572835 -0.00572835,-0.00572835z" style="fill: #61c0bf;"/><path class="fil0" d="M0.258941 0.015122c-0.00172835,0 -0.00312598,0.00139764 -0.00312598,0.00312598 0,0.00172441 0.00139764,0.00312205 0.00312598,0.00312205 0.00172441,0 0.00312205,-0.00139764 0.00312205,-0.00312205 0,-0.00172835 -0.00139764,-0.00312598 -0.00312205,-0.00312598z" style="fill: #61c0bf;"/></g></g><g id="SvgjsG6051" featureKey="Q4qmbg-0" transform="matrix(3.344074804895996,0,0,3.344074804895996,112.13423428020408,-16.72037402447998)" fill="#fff"><path d="M7.3535 9.766 c2.6367 0 4.8242 1.9531 4.8242 5.2344 s-2.1875 5.2344 -4.8242 5.2344 c-1.3867 0 -2.5977 -0.55664 -3.1641 -1.543 l-0.068359 1.3086 l-2.666 0 l0 -15 l2.8125 0 l0 6.1816 c0.58594 -0.9082 1.7578 -1.416 3.0859 -1.416 z M6.6992 17.9004 c1.4941 0 2.666 -1.1035 2.666 -2.9004 c0 -1.8066 -1.1719 -2.9102 -2.666 -2.9102 c-1.4844 0 -2.6563 1.1523 -2.6563 2.9102 s1.1621 2.9004 2.6563 2.9004 z M15.1458490234375 8.457 c-0.88867 0 -1.6309 -0.72266 -1.6309 -1.6211 c0 -0.88867 0.74219 -1.6113 1.6309 -1.6113 c0.86914 0 1.6113 0.72266 1.6113 1.6113 c0 0.89844 -0.74219 1.6211 -1.6113 1.6211 z M13.710349023437498 20 l0 -10.039 l2.832 0 l0 10.039 l-2.832 0 z M21.561288671874998 11.5527 c0.50781 -0.88867 1.8262 -1.709 3.2813 -1.709 l0 2.5098 c-2.1289 0 -3.1445 0.625 -3.1445 2.7539 l0 4.8926 l-2.832 0 l0 -10.039 l2.6953 0 l0 1.5918 z M33.0254939453125 5 l2.8125 0 l0 15 l-2.666 0 l-0.068359 -1.3086 c-0.57617 0.98633 -1.7871 1.543 -3.1543 1.543 c-2.6465 0 -4.834 -1.9531 -4.834 -5.2344 s2.1973 -5.2344 4.834 -5.2344 c1.3184 0 2.4805 0.49805 3.0762 1.4063 l0 -6.1719 z M30.593893945312495 17.9004 c1.4941 0 2.6563 -1.1426 2.6563 -2.9004 s-1.1719 -2.9102 -2.6563 -2.9102 c-1.4941 0 -2.666 1.1035 -2.666 2.9102 c0 1.7969 1.1719 2.9004 2.666 2.9004 z M39.59714296874999 8.457 c-0.88867 0 -1.6309 -0.72266 -1.6309 -1.6211 c0 -0.88867 0.74219 -1.6113 1.6309 -1.6113 c0.86914 0 1.6113 0.72266 1.6113 1.6113 c0 0.89844 -0.74219 1.6211 -1.6113 1.6211 z M38.161642968749995 20 l0 -10.039 l2.832 0 l0 10.039 l-2.832 0 z M50.23128261718749 9.961 l2.6758 0 l0 9.2871 c0 3.9063 -2.1191 5.4883 -5.3223 5.4883 c-2.8809 0 -4.4434 -1.2109 -5.1758 -3.1152 l2.334 -0.99609 c0.56641 1.2988 1.3867 1.9238 2.7344 1.9238 c1.7773 0 2.6074 -1.1133 2.6074 -3.0957 l0 -1.1719 c-0.58594 0.80078 -1.7383 1.3672 -3.0469 1.3672 c-2.4902 0 -4.5801 -1.9629 -4.5801 -4.9609 c0 -3.0078 2.0996 -4.9219 4.5996 -4.9219 c1.4063 0 2.5586 0.625 3.1055 1.5234 z M47.760582617187495 17.373 c1.4648 0 2.5977 -1.1914 2.5977 -2.6855 c0 -1.5039 -1.1133 -2.6953 -2.5977 -2.6953 c-1.4746 0 -2.5879 1.1426 -2.5879 2.6953 c0 1.5332 1.1328 2.6855 2.5879 2.6855 z M56.67600039062499 8.457 c-0.88867 0 -1.6309 -0.72266 -1.6309 -1.6211 c0 -0.88867 0.74219 -1.6113 1.6309 -1.6113 c0.86914 0 1.6113 0.72266 1.6113 1.6113 c0 0.89844 -0.74219 1.6211 -1.6113 1.6211 z M55.240500390624995 20 l0 -10.039 l2.832 0 l0 10.039 l-2.832 0 z"/></g><g id="SvgjsG6052" featureKey="sloganFeature-0" transform="matrix(1,0,0,1,113.35999965667725,71.18000030517578)" fill="#fff"><path d="M10.26 20 l-1.46 0 l0 -5.78 c0 -0.92 -0.22 -1.64 -0.7 -2.2 c-0.46 -0.54 -1.14 -0.82 -2.04 -0.82 c-0.86 0 -1.58 0.3 -2.14 0.9 c-0.54 0.6 -0.82 1.34 -0.82 2.24 l0 5.66 l-1.46 0 l0 -9.94 l1.42 0 l0 1.82 c0.8 -1.34 1.94 -2 3.44 -2 c1.18 0 2.1 0.36 2.78 1.08 c0.64 0.74 0.98 1.7 0.98 2.9 l0 6.14 z M16.66 14.26 l2.76 0 l0 -0.66 c0 -1.6 -0.88 -2.42 -2.54 -2.42 c-0.8 0 -1.48 0.26 -1.88 0.66 s-0.64 0.86 -0.72 1.36 l-1.4 -0.3 c0.02 -0.5 0.5 -1.48 1.4 -2.2 c0.6 -0.46 1.56 -0.82 2.64 -0.82 c1.82 0 3.02 0.68 3.62 2.06 c0.2 0.46 0.3 1 0.3 1.64 l0 2.8 c0 1.66 0.06 2.88 0.16 3.62 l-1.44 0 c-0.08 -0.44 -0.14 -1.02 -0.14 -1.74 l0 0 c-0.84 1.28 -1.94 1.92 -3.36 1.92 c-0.98 0 -1.8 -0.28 -2.4 -0.84 c-0.62 -0.54 -0.94 -1.24 -0.94 -2.1 l0 -0.1 c0 -2.16 2.16 -2.88 3.94 -2.88 z M19.419999999999998 15.8 l0 -0.34 l-2.78 0 c-0.58 0 -1.12 0.1 -1.62 0.34 c-0.5 0.22 -0.84 0.7 -0.84 1.32 c0 0.56 0.2 0.98 0.62 1.3 c0.4 0.32 0.9 0.48 1.52 0.48 c0.88 0 1.62 -0.3 2.22 -0.88 c0.58 -0.56 0.88 -1.32 0.88 -2.22 z M28.56 20 l-1.54 0 l-4.22 -9.94 l1.6 0 l3.4 8.34 l3.46 -8.34 l1.54 0 z M34.84 7.279999999999999 c-0.2 -0.22 -0.32 -0.48 -0.32 -0.78 s0.12 -0.56 0.32 -0.78 c0.2 -0.2 0.48 -0.32 0.78 -0.32 s0.56 0.12 0.76 0.32 c0.22 0.22 0.32 0.48 0.32 0.78 s-0.1 0.56 -0.32 0.78 c-0.2 0.2 -0.46 0.32 -0.76 0.32 s-0.58 -0.12 -0.78 -0.32 z M34.88 20 l0 -9.94 l1.46 0 l0 9.94 l-1.46 0 z M47.42 19.86 l0 -2.08 c-0.9 1.52 -2.18 2.26 -3.84 2.26 c-0.92 0 -1.74 -0.24 -2.46 -0.7 s-1.26 -1.08 -1.64 -1.84 c-0.38 -0.78 -0.56 -1.6 -0.56 -2.52 c0 -0.88 0.18 -1.7 0.56 -2.48 c0.38 -0.76 0.94 -1.4 1.66 -1.88 c0.72 -0.5 1.54 -0.74 2.44 -0.74 c0.92 0 1.74 0.26 2.38 0.7 c0.62 0.44 1.04 0.92 1.48 1.56 l0 -2.08 l1.44 0 l0 9.7 c0 1.7 -0.48 3 -1.4 3.88 c-0.94 0.88 -2.2 1.34 -3.78 1.34 c-1.24 0 -2.3 -0.34 -3.16 -0.98 c-0.86 -0.66 -1.4 -1.46 -1.58 -2.44 l1.32 -0.44 c0.24 1.02 1.16 2.58 3.4 2.58 c1.06 0 1.92 -0.28 2.62 -0.88 c0.7 -0.58 1.12 -1.62 1.12 -2.96 z M43.88 18.76 c1.02 0 1.86 -0.36 2.54 -1.12 c0.68 -0.74 1.02 -1.64 1.02 -2.68 c0.04 -1.94 -1.56 -3.82 -3.56 -3.78 c-1.08 0 -1.92 0.36 -2.54 1.08 c-0.64 0.72 -0.94 1.64 -0.94 2.74 c-0.04 2.04 1.34 3.78 3.48 3.76 z M55.400000000000006 14.26 l2.76 0 l0 -0.66 c0 -1.6 -0.88 -2.42 -2.54 -2.42 c-0.8 0 -1.48 0.26 -1.88 0.66 s-0.64 0.86 -0.72 1.36 l-1.4 -0.3 c0.02 -0.5 0.5 -1.48 1.4 -2.2 c0.6 -0.46 1.56 -0.82 2.64 -0.82 c1.82 0 3.02 0.68 3.62 2.06 c0.2 0.46 0.3 1 0.3 1.64 l0 2.8 c0 1.66 0.06 2.88 0.16 3.62 l-1.44 0 c-0.08 -0.44 -0.14 -1.02 -0.14 -1.74 l0 0 c-0.84 1.28 -1.94 1.92 -3.36 1.92 c-0.98 0 -1.8 -0.28 -2.4 -0.84 c-0.62 -0.54 -0.94 -1.24 -0.94 -2.1 l0 -0.1 c0 -2.16 2.16 -2.88 3.94 -2.88 z M58.160000000000004 15.8 l0 -0.34 l-2.78 0 c-0.58 0 -1.12 0.1 -1.62 0.34 c-0.5 0.22 -0.84 0.7 -0.84 1.32 c0 0.56 0.2 0.98 0.62 1.3 c0.4 0.32 0.9 0.48 1.52 0.48 c0.88 0 1.62 -0.3 2.22 -0.88 c0.58 -0.56 0.88 -1.32 0.88 -2.22 z M66.22 20.08 c-2.16 0 -2.82 -1.2 -2.82 -2.66 l0 -6.08 l-1.84 0 l0 -1.28 l1.84 0 l0 -2.86 l1.44 0 l0 2.86 l2.52 0 l0 1.28 l-2.52 0 l0 6.06 c0 0.92 0.54 1.4 1.62 1.4 c0.34 0 0.64 -0.04 0.9 -0.08 l0 1.2 c-0.32 0.1 -0.7 0.16 -1.14 0.16 z M69.78 7.279999999999999 c-0.2 -0.22 -0.32 -0.48 -0.32 -0.78 s0.12 -0.56 0.32 -0.78 c0.2 -0.2 0.48 -0.32 0.78 -0.32 s0.56 0.12 0.76 0.32 c0.22 0.22 0.32 0.48 0.32 0.78 s-0.1 0.56 -0.32 0.78 c-0.2 0.2 -0.46 0.32 -0.76 0.32 s-0.58 -0.12 -0.78 -0.32 z M69.82000000000001 20 l0 -9.94 l1.46 0 l0 9.94 l-1.46 0 z M83.18 20 l-1.46 0 l0 -5.78 c0 -0.92 -0.22 -1.64 -0.7 -2.2 c-0.46 -0.54 -1.14 -0.82 -2.04 -0.82 c-0.86 0 -1.58 0.3 -2.14 0.9 c-0.54 0.6 -0.82 1.34 -0.82 2.24 l0 5.66 l-1.46 0 l0 -9.94 l1.42 0 l0 1.82 c0.8 -1.34 1.94 -2 3.44 -2 c1.18 0 2.1 0.36 2.78 1.08 c0.64 0.74 0.98 1.7 0.98 2.9 l0 6.14 z M94.14 19.86 l0 -2.08 c-0.9 1.52 -2.18 2.26 -3.84 2.26 c-0.92 0 -1.74 -0.24 -2.46 -0.7 s-1.26 -1.08 -1.64 -1.84 c-0.38 -0.78 -0.56 -1.6 -0.56 -2.52 c0 -0.88 0.18 -1.7 0.56 -2.48 c0.38 -0.76 0.94 -1.4 1.66 -1.88 c0.72 -0.5 1.54 -0.74 2.44 -0.74 c0.92 0 1.74 0.26 2.38 0.7 c0.62 0.44 1.04 0.92 1.48 1.56 l0 -2.08 l1.44 0 l0 9.7 c0 1.7 -0.48 3 -1.4 3.88 c-0.94 0.88 -2.2 1.34 -3.78 1.34 c-1.24 0 -2.3 -0.34 -3.16 -0.98 c-0.86 -0.66 -1.4 -1.46 -1.58 -2.44 l1.32 -0.44 c0.24 1.02 1.16 2.58 3.4 2.58 c1.06 0 1.92 -0.28 2.62 -0.88 c0.7 -0.58 1.12 -1.62 1.12 -2.96 z M90.60000000000001 18.76 c1.02 0 1.86 -0.36 2.54 -1.12 c0.68 -0.74 1.02 -1.64 1.02 -2.68 c0.04 -1.94 -1.56 -3.82 -3.56 -3.78 c-1.08 0 -1.92 0.36 -2.54 1.08 c-0.64 0.72 -0.94 1.64 -0.94 2.74 c-0.04 2.04 1.34 3.78 3.48 3.76 z M103.36000000000001 15.02 c0 -1.3 0.48 -2.58 1.28 -3.54 c0.8 -0.98 2.02 -1.6 3.38 -1.6 c0.92 0 1.74 0.26 2.36 0.7 s1.06 0.92 1.5 1.56 l0 -7.3 l1.44 0 l0 15.16 l-1.42 0 l0 -2.12 c-0.92 1.52 -2.22 2.26 -3.88 2.26 c-1.38 0 -2.6 -0.6 -3.4 -1.54 c-0.78 -0.94 -1.26 -2.22 -1.26 -3.58 z M108.32000000000001 18.88 c2.04 0.02 3.62 -1.88 3.58 -3.88 c0 -1.3 -0.64 -2.54 -1.74 -3.28 c-0.56 -0.36 -1.18 -0.54 -1.84 -0.54 c-1.06 0 -1.9 0.36 -2.52 1.1 c-0.64 0.74 -0.96 1.66 -0.96 2.78 c0 1.38 0.56 2.56 1.62 3.28 c0.54 0.36 1.16 0.54 1.86 0.54 z M116.56 7.279999999999999 c-0.2 -0.22 -0.32 -0.48 -0.32 -0.78 s0.12 -0.56 0.32 -0.78 c0.2 -0.2 0.48 -0.32 0.78 -0.32 s0.56 0.12 0.76 0.32 c0.22 0.22 0.32 0.48 0.32 0.78 s-0.1 0.56 -0.32 0.78 c-0.2 0.2 -0.46 0.32 -0.76 0.32 s-0.58 -0.12 -0.78 -0.32 z M116.60000000000001 20 l0 -9.94 l1.46 0 l0 9.94 l-1.46 0 z M129.14000000000001 19.86 l0 -2.08 c-0.9 1.52 -2.18 2.26 -3.84 2.26 c-0.92 0 -1.74 -0.24 -2.46 -0.7 s-1.26 -1.08 -1.64 -1.84 c-0.38 -0.78 -0.56 -1.6 -0.56 -2.52 c0 -0.88 0.18 -1.7 0.56 -2.48 c0.38 -0.76 0.94 -1.4 1.66 -1.88 c0.72 -0.5 1.54 -0.74 2.44 -0.74 c0.92 0 1.74 0.26 2.38 0.7 c0.62 0.44 1.04 0.92 1.48 1.56 l0 -2.08 l1.44 0 l0 9.7 c0 1.7 -0.48 3 -1.4 3.88 c-0.94 0.88 -2.2 1.34 -3.78 1.34 c-1.24 0 -2.3 -0.34 -3.16 -0.98 c-0.86 -0.66 -1.4 -1.46 -1.58 -2.44 l1.32 -0.44 c0.24 1.02 1.16 2.58 3.4 2.58 c1.06 0 1.92 -0.28 2.62 -0.88 c0.7 -0.58 1.12 -1.62 1.12 -2.96 z M125.60000000000001 18.76 c1.02 0 1.86 -0.36 2.54 -1.12 c0.68 -0.74 1.02 -1.64 1.02 -2.68 c0.04 -1.94 -1.56 -3.82 -3.56 -3.78 c-1.08 0 -1.92 0.36 -2.54 1.08 c-0.64 0.72 -0.94 1.64 -0.94 2.74 c-0.04 2.04 1.34 3.78 3.48 3.76 z M133.84 7.279999999999999 c-0.2 -0.22 -0.32 -0.48 -0.32 -0.78 s0.12 -0.56 0.32 -0.78 c0.2 -0.2 0.48 -0.32 0.78 -0.32 s0.56 0.12 0.76 0.32 c0.22 0.22 0.32 0.48 0.32 0.78 s-0.1 0.56 -0.32 0.78 c-0.2 0.2 -0.46 0.32 -0.76 0.32 s-0.58 -0.12 -0.78 -0.32 z M133.88 20 l0 -9.94 l1.46 0 l0 9.94 l-1.46 0 z M142.10000000000002 20.08 c-2.16 0 -2.82 -1.2 -2.82 -2.66 l0 -6.08 l-1.84 0 l0 -1.28 l1.84 0 l0 -2.86 l1.44 0 l0 2.86 l2.52 0 l0 1.28 l-2.52 0 l0 6.06 c0 0.92 0.54 1.4 1.62 1.4 c0.34 0 0.64 -0.04 0.9 -0.08 l0 1.2 c-0.32 0.1 -0.7 0.16 -1.14 0.16 z M148.94000000000003 14.26 l2.76 0 l0 -0.66 c0 -1.6 -0.88 -2.42 -2.54 -2.42 c-0.8 0 -1.48 0.26 -1.88 0.66 s-0.64 0.86 -0.72 1.36 l-1.4 -0.3 c0.02 -0.5 0.5 -1.48 1.4 -2.2 c0.6 -0.46 1.56 -0.82 2.64 -0.82 c1.82 0 3.02 0.68 3.62 2.06 c0.2 0.46 0.3 1 0.3 1.64 l0 2.8 c0 1.66 0.06 2.88 0.16 3.62 l-1.44 0 c-0.08 -0.44 -0.14 -1.02 -0.14 -1.74 l0 0 c-0.84 1.28 -1.94 1.92 -3.36 1.92 c-0.98 0 -1.8 -0.28 -2.4 -0.84 c-0.62 -0.54 -0.94 -1.24 -0.94 -2.1 l0 -0.1 c0 -2.16 2.16 -2.88 3.94 -2.88 z M151.70000000000002 15.8 l0 -0.34 l-2.78 0 c-0.58 0 -1.12 0.1 -1.62 0.34 c-0.5 0.22 -0.84 0.7 -0.84 1.32 c0 0.56 0.2 0.98 0.62 1.3 c0.4 0.32 0.9 0.48 1.52 0.48 c0.88 0 1.62 -0.3 2.22 -0.88 c0.58 -0.56 0.88 -1.32 0.88 -2.22 z M156.28000000000003 20 l0 -15.18 l1.46 0 l0 15.18 l-1.46 0 z M172.78000000000003 17.18 c0 0.88 -0.34 1.6 -1.02 2.14 c-0.68 0.56 -1.52 0.84 -2.5 0.84 c-1.6 0 -2.64 -0.66 -3.18 -1.44 c-0.4 -0.54 -0.54 -1.02 -0.6 -1.52 l1.32 -0.34 c0.16 0.92 0.86 2.04 2.44 2.04 c0.56 0 1.04 -0.16 1.46 -0.46 c0.4 -0.28 0.6 -0.68 0.6 -1.18 c0 -0.4 -0.16 -0.72 -0.48 -0.96 c-0.32 -0.26 -0.7 -0.42 -1.14 -0.52 l-1.52 -0.34 c-1.64 -0.36 -2.48 -1.24 -2.48 -2.6 c0 -1.02 0.52 -1.86 1.24 -2.3 c0.7 -0.44 1.46 -0.66 2.14 -0.66 c1.5 0.02 2.46 0.6 2.98 1.32 c0.36 0.5 0.52 0.92 0.6 1.34 l-1.32 0.38 c-0.1 -0.4 -0.26 -0.72 -0.58 -1.12 c-0.34 -0.4 -0.94 -0.64 -1.68 -0.64 c-0.54 0 -0.98 0.14 -1.36 0.46 c-0.38 0.3 -0.56 0.68 -0.56 1.12 c0 0.78 0.56 1.14 1.44 1.36 l1.6 0.36 c1.3 0.3 2.6 1.12 2.6 2.72 z M176.88000000000002 15.02 l-0.06 0 l0 4.98 l-1.46 0 l0 -15.18 l1.46 0 l0 9.28 l4.72 -4.04 l2.06 0 l-5.24 4.46 l5.48 5.48 l-2.02 0 z M187.78 24.9 l-1.58 0 l2.58 -5.58 l-4.52 -9.26 l1.66 0 l3.64 7.68 l3.46 -7.68 l1.56 0 z"/></g>
			</g>
		</svg>
	